# xmcd
# 
# Track frame offsets:
#     150
#     21256
#     41308
#     61444
#     86668
#     107607
#     129637
#     143119
#     165845
#     192353
#     213565
#     236395
#     255995
#     296385
#     319126
# 
# Disc length: 4631
# 
# Revision: 1
# Processed by: cddbd v1.5.2PL0 Copyright (c) Steve Scherf et al.
# Submitted via: fre:ac v1.0.27
# 
DISCID=ca12150f
DTITLE=Erja Lyytinen and Heikki Silvennoinen - Live 2016
DYEAR=2016
DGENRE=Blues
TTITLE0=Baking Song
TTITLE1=The River
TTITLE2=You Should Know
TTITLE3=Silloin Nyt Aina
TTITLE4=Love Laboratory
TTITLE5=Sun Don't You Shine
TTITLE6=I Can't Hold Out
TTITLE7=Four Thousand Miles
TTITLE8=Pohjoinen J‰‰
TTITLE9=Rakastatko Viel‰ Kun On Ilta
TTITLE10=Have You Ever Loved A Woman
TTITLE11=Crossroads
TTITLE12=Singing The Blues
TTITLE13=Rock Steady
TTITLE14=I Loved Another Woman
EXTD=
EXTT0=
EXTT1=
EXTT2=
EXTT3=
EXTT4=
EXTT5=
EXTT6=
EXTT7=
EXTT8=
EXTT9=
EXTT10=
EXTT11=
EXTT12=
EXTT13=
EXTT14=
PLAYORDER=
